<svg width="1200" height="800" viewBox="0 0 1200 800" xmlns="http://www.w3.org/2000/svg">
  <rect width="1200" height="800" fill="#f1f5f9"/>
  <rect x="200" y="200" width="800" height="400" fill="#64748b"/>
  <rect x="220" y="220" width="60" height="80" fill="#94a3b8"/>
  <rect x="300" y="220" width="60" height="80" fill="#94a3b8"/>
  <rect x="380" y="220" width="60" height="80" fill="#94a3b8"/>
  <rect x="460" y="220" width="60" height="80" fill="#94a3b8"/>
  <rect x="540" y="220" width="60" height="80" fill="#94a3b8"/>
  <rect x="620" y="220" width="60" height="80" fill="#94a3b8"/>
  <rect x="700" y="220" width="60" height="80" fill="#94a3b8"/>
  <rect x="780" y="220" width="60" height="80" fill="#94a3b8"/>
  <rect x="860" y="220" width="60" height="80" fill="#94a3b8"/>
  <rect x="220" y="320" width="60" height="80" fill="#94a3b8"/>
  <rect x="300" y="320" width="60" height="80" fill="#94a3b8"/>
  <rect x="380" y="320" width="60" height="80" fill="#94a3b8"/>
  <rect x="460" y="320" width="60" height="80" fill="#94a3b8"/>
  <rect x="540" y="320" width="60" height="80" fill="#94a3b8"/>
  <rect x="620" y="320" width="60" height="80" fill="#94a3b8"/>
  <rect x="700" y="320" width="60" height="80" fill="#94a3b8"/>
  <rect x="780" y="320" width="60" height="80" fill="#94a3b8"/>
  <rect x="860" y="320" width="60" height="80" fill="#94a3b8"/>
  <rect x="450" y="520" width="120" height="80" fill="#374151"/>
  <text x="600" y="720" text-anchor="middle" fill="#64748b" font-family="Arial" font-size="24">Accommodation Photo</text>
</svg>
